<svg width="150" height="150" viewBox="0 0 150 150" fill="none" xmlns="http://www.w3.org/2000/svg">
<g clip-path="url(#clip0_3_32)">
<path d="M98.4375 0.146484L150 25.9277V83.4229L140.625 78.7354V36.4014L103.125 55.1514V74.0479L93.75 78.7354V55.1514L56.25 36.4014V53.0273L46.875 48.3398V25.9277L98.4375 0.146484ZM98.4375 47.0215L111.401 40.5029L77.4902 21.0938L62.0361 28.8574L98.4375 47.0215ZM121.509 35.5225L134.839 28.8574L98.4375 10.6201L87.5244 16.1133L121.509 35.5225ZM84.375 83.4229L75 88.1104V88.0371L46.875 102.1V135.425L75 121.289V131.836L42.1875 148.242L0 127.075V77.5635L42.1875 56.4697L84.375 77.5635V83.4229ZM37.5 135.425V102.1L9.375 88.0371V121.289L37.5 135.425ZM42.1875 93.9697L69.2139 80.4932L42.1875 66.9434L15.1611 80.4932L42.1875 93.9697ZM84.375 93.8965L117.188 77.4902L150 93.8965V132.495L117.188 148.901L84.375 132.495V93.8965ZM112.5 136.084V113.745L93.75 104.37V126.709L112.5 136.084ZM140.625 126.709V104.37L121.875 113.745V136.084L140.625 126.709ZM117.188 105.615L134.839 96.7529L117.188 87.9639L99.5361 96.7529L117.188 105.615Z" fill="#581C87"/>
</g>
<defs>
<clipPath id="clip0_3_32">
<rect width="150" height="150" fill="white"/>
</clipPath>
</defs>
</svg>
