<svg width="150" height="150" viewBox="0 0 150 150" fill="none" xmlns="http://www.w3.org/2000/svg">
<path d="M53.9062 35.1562C53.9062 29.5618 56.1286 24.1966 60.0845 20.2407C64.0403 16.2849 69.4056 14.0625 75 14.0625C80.5944 14.0625 85.9597 16.2849 89.9155 20.2407C93.8714 24.1966 96.0938 29.5618 96.0938 35.1562C96.0938 40.7507 93.8714 46.1159 89.9155 50.0718C85.9597 54.0276 80.5944 56.25 75 56.25C69.4056 56.25 64.0403 54.0276 60.0845 50.0718C56.1286 46.1159 53.9062 40.7507 53.9062 35.1562ZM28.125 28.125C23.1522 28.125 18.3831 30.1004 14.8667 33.6167C11.3504 37.1331 9.375 41.9022 9.375 46.875C9.375 51.8478 11.3504 56.6169 14.8667 60.1333C18.3831 63.6496 23.1522 65.625 28.125 65.625C33.0978 65.625 37.8669 63.6496 41.3833 60.1333C44.8996 56.6169 46.875 51.8478 46.875 46.875C46.875 41.9022 44.8996 37.1331 41.3833 33.6167C37.8669 30.1004 33.0978 28.125 28.125 28.125ZM121.875 28.125C116.902 28.125 112.133 30.1004 108.617 33.6167C105.1 37.1331 103.125 41.9022 103.125 46.875C103.125 51.8478 105.1 56.6169 108.617 60.1333C112.133 63.6496 116.902 65.625 121.875 65.625C126.848 65.625 131.617 63.6496 135.133 60.1333C138.65 56.6169 140.625 51.8478 140.625 46.875C140.625 41.9022 138.65 37.1331 135.133 33.6167C131.617 30.1004 126.848 28.125 121.875 28.125ZM39.8438 77.3438C39.8438 76.3 39.9266 75.2828 40.0922 74.2922L18.0609 80.1937C15.0594 80.9989 12.5005 82.9634 10.9472 85.6551C9.39392 88.3467 8.97339 91.5452 9.77812 94.5469L14.025 110.391C15.0501 114.219 16.8726 117.787 19.3731 120.861C21.8736 123.936 24.9956 126.447 28.5345 128.231C32.0734 130.015 35.9493 131.03 39.9081 131.211C43.867 131.392 47.8194 130.734 51.5062 129.281C47.831 125.988 44.8925 121.955 42.8828 117.448C40.8731 112.941 39.8375 108.06 39.8438 103.125V77.3438ZM110.156 103.125C110.161 108.061 109.124 112.942 107.113 117.449C105.102 121.957 102.161 125.989 98.4844 129.281C99.4688 129.669 100.48 130.002 101.517 130.28C108.722 132.21 116.399 131.198 122.858 127.468C129.317 123.739 134.031 117.595 135.961 110.391L140.208 94.5469C140.606 93.0603 140.708 91.5098 140.507 89.9839C140.306 88.458 139.807 86.9866 139.037 85.6538C138.267 84.3209 137.243 83.1527 136.022 82.2159C134.801 81.2791 133.407 80.5919 131.92 80.1937L109.908 74.2922C110.073 75.2891 110.156 76.3063 110.156 77.3438V103.125ZM58.5938 65.625C55.4857 65.625 52.505 66.8596 50.3073 69.0573C48.1096 71.255 46.875 74.2357 46.875 77.3438V103.125C46.875 110.584 49.8382 117.738 55.1126 123.012C60.3871 128.287 67.5408 131.25 75 131.25C82.4592 131.25 89.6129 128.287 94.8874 123.012C100.162 117.738 103.125 110.584 103.125 103.125V77.3438C103.125 74.2357 101.89 71.255 99.6927 69.0573C97.495 66.8596 94.5143 65.625 91.4062 65.625H58.5938Z" fill="#581C87"/>
</svg>
