<svg width="150" height="150" viewBox="0 0 150 150" fill="none" xmlns="http://www.w3.org/2000/svg">
<path d="M50.375 31.9375C49.3309 31.3499 48.1014 31.1844 46.939 31.4749C45.7767 31.7655 44.7697 32.4902 44.125 33.5L35.4375 47.6875C35.286 47.9144 35.0818 48.1011 34.8423 48.2317C34.6028 48.3623 34.3352 48.4329 34.0625 48.4375H32.3125C31.8256 48.4273 31.3436 48.5358 30.908 48.7536C30.4725 48.9714 30.0965 49.2919 29.8125 49.6875C29.5214 50.0756 29.3247 50.5262 29.2379 51.0035C29.1511 51.4808 29.1767 51.9718 29.3125 52.4375L38.6875 83.6875C38.8675 84.342 39.2598 84.9181 39.8029 85.3254C40.3459 85.7326 41.0088 85.948 41.6875 85.9375H72.9375C73.5873 85.9327 74.2194 85.7254 74.7459 85.3446C75.2724 84.9637 75.6671 84.4282 75.875 83.8125L86.3125 52.5625C86.4707 52.0942 86.5155 51.5951 86.4434 51.1062C86.3712 50.6172 86.1841 50.1523 85.8974 49.7497C85.6107 49.3471 85.2325 49.0182 84.7941 48.7901C84.3556 48.562 83.8693 48.4412 83.375 48.4375H80.5625C80.2898 48.4329 80.0222 48.3623 79.7827 48.2317C79.5432 48.1011 79.339 47.9144 79.1875 47.6875L70.6875 33.5C70.041 32.4143 68.9897 31.6298 67.7649 31.3192C66.5401 31.0086 65.242 31.1973 64.1562 31.8438C63.0705 32.4902 62.2861 33.5415 61.9755 34.7664C61.6649 35.9912 61.8535 37.2893 62.5 38.375L67.125 46.0625C67.2461 46.3052 67.3091 46.5726 67.3091 46.8438C67.3091 47.1149 67.2461 47.3824 67.125 47.625C66.9901 47.8716 66.7911 48.0772 66.5492 48.2202C66.3072 48.3632 66.0311 48.4383 65.75 48.4375H48.6875C48.414 48.4264 48.1477 48.3464 47.9133 48.2049C47.679 48.0634 47.4842 47.865 47.3471 47.628C47.2099 47.3911 47.1348 47.1234 47.1288 46.8497C47.1227 46.576 47.1859 46.3053 47.3125 46.0625L51.9375 38.375C52.5831 37.3139 52.7811 36.04 52.4882 34.833C52.1952 33.626 51.4352 32.5846 50.375 31.9375ZM147.75 113.563C148.199 111.569 147.875 109.479 146.842 107.715C145.81 105.952 144.146 104.646 142.188 104.063L118.75 97.25C118.425 97.1554 118.14 96.958 117.938 96.6875C117.735 96.4171 117.625 96.0881 117.625 95.75V67.1875C117.625 65.5299 116.967 63.9402 115.794 62.7681C114.622 61.596 113.033 60.9375 111.375 60.9375C109.717 60.9375 108.128 61.596 106.956 62.7681C105.783 63.9402 105.125 65.5299 105.125 67.1875V111.313C105.125 111.651 105.015 111.98 104.812 112.25C104.61 112.52 104.325 112.718 104 112.813C103.679 112.9 103.34 112.887 103.027 112.775C102.714 112.663 102.443 112.458 102.25 112.188C93 98.8125 78.5 103.063 85.3125 113.5L104.062 141.5C104.193 141.713 104.377 141.889 104.596 142.01C104.815 142.13 105.062 142.192 105.312 142.188H141.437C141.809 142.18 142.166 142.046 142.45 141.807C142.735 141.568 142.929 141.239 143 140.875L147.562 115.875L147.75 113.563Z" fill="#581C87"/>
<path d="M80.1875 126.562C80.1875 124.905 79.529 123.315 78.3569 122.143C77.1848 120.971 75.5951 120.312 73.9375 120.312H72.375C71.9606 120.312 71.5632 120.148 71.2701 119.855C70.9771 119.562 70.8125 119.164 70.8125 118.75V115.438C70.8195 115.083 70.9472 114.741 71.1743 114.468C71.4015 114.196 71.7148 114.008 72.0625 113.938C73.7201 113.772 75.244 112.954 76.2989 111.665C77.3538 110.376 77.8533 108.72 77.6875 107.062C77.5217 105.405 76.7043 103.881 75.415 102.826C74.1257 101.771 72.4701 101.272 70.8125 101.438H17.6875C16.8587 101.438 16.0638 101.108 15.4778 100.522C14.8917 99.9362 14.5625 99.1413 14.5625 98.3125V23.3125C14.5625 22.4837 14.8917 21.6888 15.4778 21.1028C16.0638 20.5167 16.8587 20.1875 17.6875 20.1875H130.188C131.016 20.1875 131.811 20.5167 132.397 21.1028C132.983 21.6888 133.312 22.4837 133.312 23.3125V88.9375C133.312 90.5951 133.971 92.1848 135.143 93.3569C136.315 94.529 137.905 95.1875 139.562 95.1875C141.22 95.1875 142.81 94.529 143.982 93.3569C145.154 92.1848 145.812 90.5951 145.812 88.9375V20.1875C145.812 16.8723 144.496 13.6929 142.151 11.3487C139.807 9.00446 136.628 7.6875 133.312 7.6875H14.5625C11.2473 7.6875 8.06787 9.00446 5.72367 11.3487C3.37946 13.6929 2.0625 16.8723 2.0625 20.1875V101.438C2.0625 104.753 3.37946 107.932 5.72367 110.276C8.06787 112.621 11.2473 113.938 14.5625 113.938H56.75C57.1644 113.938 57.5618 114.102 57.8549 114.395C58.1479 114.688 58.3125 115.086 58.3125 115.5V118.75C58.3125 119.164 58.1479 119.562 57.8549 119.855C57.5618 120.148 57.1644 120.312 56.75 120.312H42.6875C41.0299 120.312 39.4402 120.971 38.2681 122.143C37.096 123.315 36.4375 124.905 36.4375 126.562C36.4375 128.22 37.096 129.81 38.2681 130.982C39.4402 132.154 41.0299 132.812 42.6875 132.812H73.9375C75.5951 132.812 77.1848 132.154 78.3569 130.982C79.529 129.81 80.1875 128.22 80.1875 126.562Z" fill="#581C87"/>
</svg>
