<svg width="100" height="80" viewBox="0 0 100 80" fill="none" xmlns="http://www.w3.org/2000/svg">
<path d="M50.5312 13.3125L35.4062 25.5625C32.8906 27.5938 32.4062 31.25 34.3125 33.8594C36.3281 36.6406 40.25 37.1875 42.9531 35.0781L58.4688 23.0156C59.5625 22.1719 61.125 22.3594 61.9844 23.4531C62.8438 24.5469 62.6406 26.1094 61.5469 26.9688L58.2812 29.5L85.9688 55H92.5C96.6406 55 100 51.6406 100 47.5V27.5C100 23.3594 96.6406 20 92.5 20H79.8906L79.2812 19.6094L67.9375 12.3438C65.5469 10.8125 62.75 10 59.9062 10C56.5 10 53.1875 11.1719 50.5312 13.3125ZM54.0938 32.75L46.0156 39.0312C41.0938 42.875 33.9531 41.875 30.2656 36.8125C26.7969 32.0469 27.6719 25.3906 32.25 21.6875L45.25 11.1719C43.4375 10.4062 41.4844 10.0156 39.5 10.0156C36.5625 10 33.7031 10.875 31.25 12.5L20 20H7.5C3.35938 20 0 23.3594 0 27.5V47.5C0 51.6406 3.35938 55 7.5 55H24.4062L38.6875 68.0312C41.75 70.8281 46.4844 70.6094 49.2812 67.5469C50.1406 66.5938 50.7188 65.4844 51.0156 64.3281L53.6719 66.7656C56.7188 69.5625 61.4688 69.3594 64.2656 66.3125C64.9688 65.5469 65.4844 64.6562 65.8125 63.7344C68.8438 65.7656 72.9688 65.3438 75.5156 62.5625C78.3125 59.5156 78.1094 54.7656 75.0625 51.9688L54.0938 32.75Z" fill="#581C87"/>
</svg>
