<svg width="32" height="32" viewBox="0 0 32 32" fill="none" xmlns="http://www.w3.org/2000/svg">
<path d="M4.8669 4.8669C3 6.75158 3 9.76529 3 15.8016V16.8684C3 22.8958 3 25.9095 4.8669 27.8031C6.75158 29.67 9.76529 29.67 15.8016 29.67H16.8684C22.8958 29.67 25.9095 29.67 27.8031 27.8031C29.67 25.9184 29.67 22.9047 29.67 16.8684V15.8016C29.67 9.77418 29.67 6.76047 27.8031 4.8669C25.9184 3 22.9047 3 16.8684 3H15.8016C9.77418 3 6.76047 3 4.8669 4.8669ZM7.49834 11.1166H10.5565C10.6543 16.2016 12.8946 18.353 14.6726 18.7975V11.1166H17.544V15.4993C19.2954 15.3126 21.1445 13.3124 21.7668 11.1077H24.6294C24.3958 12.2489 23.9295 13.3297 23.2595 14.2826C22.5896 15.2355 21.7304 16.0401 20.7355 16.6462C21.846 17.1986 22.8266 17.9803 23.6127 18.9396C24.3988 19.8989 24.9726 21.014 25.2961 22.2113H22.1402C21.4645 20.1044 19.7754 18.4686 17.544 18.2464V22.2113H17.1884C11.1077 22.2113 7.64058 18.0508 7.49834 11.1166Z" fill="white"/>
</svg>
