<svg width="32" height="32" viewBox="0 0 32 32" fill="none" xmlns="http://www.w3.org/2000/svg">
<path fill-rule="evenodd" clip-rule="evenodd" d="M7.84909 3C6.56303 3 5.32965 3.51089 4.42027 4.42027C3.51089 5.32965 3 6.56303 3 7.84909V24.8209C3 26.107 3.51089 27.3404 4.42027 28.2497C5.32965 29.1591 6.56303 29.67 7.84909 29.67H24.8209C26.107 29.67 27.3404 29.1591 28.2497 28.2497C29.1591 27.3404 29.67 26.107 29.67 24.8209V7.84909C29.67 6.56303 29.1591 5.32965 28.2497 4.42027C27.3404 3.51089 26.107 3 24.8209 3H7.84909ZM26.0332 16.335C26.0332 18.9071 25.0114 21.3739 23.1927 23.1927C21.3739 25.0114 18.9071 26.0332 16.335 26.0332C13.7629 26.0332 11.2961 25.0114 9.47735 23.1927C7.65859 21.3739 6.63682 18.9071 6.63682 16.335C6.63682 13.7629 7.65859 11.2961 9.47735 9.47735C11.2961 7.65859 13.7629 6.63682 16.335 6.63682C18.9071 6.63682 21.3739 7.65859 23.1927 9.47735C25.0114 11.2961 26.0332 13.7629 26.0332 16.335ZM10.2906 15.4015C10.2494 15.4184 10.214 15.4468 10.1886 15.4834C10.1632 15.52 10.1489 15.5631 10.1476 15.6076C10.1476 15.6973 10.207 15.7822 10.2906 15.8137L12.6291 16.6672L13.3371 20.1488V20.1537C13.3613 20.2842 13.4232 20.4047 13.5153 20.5004C13.598 20.5804 13.701 20.6363 13.8132 20.6619C13.9254 20.6876 14.0424 20.682 14.1517 20.6458C14.2173 20.618 14.2816 20.5872 14.3444 20.5537C14.4492 20.4949 14.5527 20.4339 14.6548 20.3707C14.8924 20.2252 15.193 20.0312 15.4852 19.8421C15.8382 19.6127 16.1897 19.3811 16.5399 19.1475L16.6284 19.0893L18.9378 20.7598C18.9675 20.7803 19.0017 20.7935 19.0375 20.7983C19.0733 20.8032 19.1097 20.7995 19.1438 20.7877C19.2117 20.7634 19.2651 20.7028 19.282 20.6325L21.4484 11.5174C21.4568 11.4785 21.455 11.438 21.4431 11.4C21.4312 11.3619 21.4096 11.3276 21.3805 11.3004C21.3498 11.2749 21.313 11.2578 21.2736 11.2508C21.2343 11.2437 21.1939 11.2471 21.1562 11.2604L10.2906 15.4015ZM14.1323 19.636L13.4898 16.4841L18.3498 13.9747C18.3782 13.9608 18.4106 13.9574 18.4412 13.9652C18.4719 13.973 18.4988 13.9914 18.5171 14.0171C18.5349 14.0434 18.5427 14.0752 18.5392 14.1068C18.5356 14.1383 18.5209 14.1676 18.4977 14.1893L14.8463 17.4648L14.1323 19.636Z" fill="white"/>
</svg>
